<?xml version="1.0" standalone="no"?>
<!DOCTYPE svg PUBLIC "-//W3C//DTD SVG 20010904//EN"
 "http://www.w3.org/TR/2001/REC-SVG-20010904/DTD/svg10.dtd">
<svg version="1.0" xmlns="http://www.w3.org/2000/svg"
 width="250.000000pt" height="250.000000pt" viewBox="0 0 250.000000 250.000000"
 preserveAspectRatio="xMidYMid meet">
<metadata>
Created by potrace 1.14, written by Peter Selinger 2001-2017
</metadata>
<g transform="translate(0.000000,250.000000) scale(0.100000,-0.100000)"
fill="#000000" stroke="none">
<path d="M1070 2125 c-13 -14 -46 -60 -74 -102 -28 -43 -55 -78 -61 -78 -5 0
-11 16 -13 35 -8 110 -27 108 -158 -22 -94 -92 -104 -99 -104 -75 0 15 -5 27
-12 27 -8 0 -9 -36 -3 -137 4 -76 7 -155 6 -176 -1 -20 4 -47 10 -58 6 -12 20
-53 30 -92 33 -117 133 -255 229 -317 55 -34 167 -70 222 -70 l40 0 -4 -97
c-4 -71 -11 -112 -27 -149 -22 -49 -24 -51 -61 -50 -31 0 -50 -9 -116 -59
-129 -99 -190 -197 -288 -463 -68 -186 -73 -227 -18 -169 23 24 30 43 12 32
-5 -3 -10 -2 -10 2 0 25 104 294 141 364 66 126 213 269 277 269 24 0 27 -7
13 -29 -6 -9 -19 -12 -37 -8 -19 3 -32 0 -40 -11 -11 -15 -3 -19 69 -39 101
-28 167 -29 344 -4 248 35 242 35 262 17 22 -20 57 -94 48 -102 -3 -3 -43 -17
-89 -31 -63 -19 -113 -27 -210 -30 -171 -7 -266 8 -402 63 -61 24 -115 44
-121 44 -14 0 -13 -36 1 -49 5 -5 77 -26 159 -46 109 -27 189 -40 295 -47 180
-14 334 -15 382 -5 l36 8 21 -63 c20 -60 51 -203 51 -234 0 -9 -5 -12 -12 -8
-7 4 -3 -4 9 -17 12 -12 26 -20 30 -16 16 17 -53 298 -93 375 -7 14 -11 29 -9
33 3 4 34 13 70 20 36 7 65 16 65 21 0 18 -33 20 -91 3 -34 -9 -62 -15 -63
-13 -2 2 -17 29 -33 61 l-31 57 24 6 c13 3 24 12 24 20 0 10 -6 11 -26 4 -31
-12 -74 -13 -74 -2 0 5 22 19 49 31 64 31 106 65 97 79 -4 7 -14 12 -23 12 -9
0 -13 -3 -10 -6 13 -13 -114 -88 -183 -109 -14 -4 -45 -17 -70 -28 -50 -22
-147 -27 -302 -13 -66 6 -88 11 -88 22 0 16 16 19 25 4 3 -5 12 -10 18 -10 7
0 3 7 -8 15 -17 14 -18 19 -6 48 38 95 52 155 50 221 l-2 69 52 19 c72 27 171
121 201 190 19 44 23 69 22 153 -1 55 -11 147 -22 205 -24 126 -24 130 -4 130
9 0 29 14 45 31 23 25 27 34 18 46 -10 11 -14 10 -23 -8 -13 -27 -33 -35 -33
-14 0 8 7 15 16 15 29 0 -6 22 -39 25 -31 2 -34 7 -66 86 -39 98 -40 107 -16
125 31 24 41 15 61 -54 34 -112 96 -151 158 -98 29 25 25 49 -5 28 -52 -37
-61 -37 -91 -1 -16 19 -34 57 -40 85 -7 29 -20 59 -31 69 -17 16 -21 16 -51 1
-18 -9 -33 -15 -33 -14 -8 24 -34 62 -44 66 -11 3 -12 0 -2 -18 7 -13 16 -36
20 -51 8 -26 5 -32 -25 -55 -29 -22 -36 -23 -54 -13 -11 7 -27 32 -36 55 -21
55 -52 94 -74 94 -10 0 -28 -11 -41 -25z m91 -71 c44 -85 72 -100 120 -65 17
13 34 19 38 15 10 -11 61 -141 61 -154 0 -6 -8 -10 -18 -10 -20 0 -104 -50
-139 -83 -27 -24 -23 -26 -57 41 -14 28 -31 52 -36 52 -10 0 8 -45 47 -115 61
-110 72 -135 67 -150 -8 -21 -39 -36 -57 -29 -8 3 -18 1 -22 -5 -11 -18 66
-13 87 6 24 22 23 50 -8 102 -13 25 -23 50 -20 57 3 7 24 24 48 38 42 24 44
25 90 9 55 -18 57 -22 82 -194 33 -220 18 -299 -74 -390 -54 -54 -123 -99
-153 -99 -8 0 -17 9 -20 20 -3 11 -11 20 -17 20 -8 0 -10 -9 -6 -25 5 -21 3
-25 -17 -25 -70 0 -205 51 -268 102 -71 57 -163 202 -183 290 l-6 27 33 -14
c18 -7 72 -19 120 -26 75 -10 87 -15 90 -33 3 -16 5 -15 6 7 1 34 -15 41 -123
55 -97 12 -127 32 -140 92 -9 41 -8 44 22 72 18 15 41 28 51 28 10 0 53 -31
95 -69 73 -66 149 -109 178 -98 7 2 -7 10 -32 18 -32 9 -62 30 -102 71 -94 95
-135 113 -192 83 -16 -9 -30 -14 -31 -13 -1 2 -5 41 -8 87 -6 82 -6 83 16 77
12 -3 29 -1 37 4 13 8 12 10 -2 10 -10 0 -18 3 -18 8 0 4 42 50 93 102 l92 95
3 -45 c3 -44 24 -80 47 -80 17 0 57 46 100 115 46 74 65 97 79 92 6 -2 27 -35
47 -73z m234 -255 c10 -15 -1 -22 -24 -14 -12 3 -19 11 -16 16 8 12 32 11 40
-2z m230 -1099 c-3 -5 -12 -10 -18 -10 -7 0 -6 4 3 10 19 12 23 12 15 0z
m-375 -48 c-45 -5 -142 7 -136 17 3 4 42 2 88 -3 57 -8 72 -12 48 -14z m530
-141 c15 -29 2 -33 -124 -37 -121 -4 -121 -1 -1 32 103 27 112 28 125 5z"/>
<path d="M835 1730 c-4 -6 6 -10 20 -10 16 0 37 -11 53 -29 26 -27 29 -28 92
-21 73 8 114 26 116 53 2 19 -16 23 -34 5 -7 -7 -15 -8 -24 -1 -17 13 -216 15
-223 3z"/>
<path d="M1119 1385 c-4 -33 5 -72 18 -85 14 -13 15 -10 9 30 -6 41 -24 78
-27 55z"/>
<path d="M982 1337 c-21 -24 -42 -96 -31 -103 13 -8 14 -7 33 40 18 44 26 41
41 -12 12 -43 42 -60 31 -17 -10 41 -39 98 -52 102 -6 2 -16 -2 -22 -10z"/>
<path d="M840 1313 c-8 -16 -16 -31 -18 -35 -2 -5 3 -8 10 -8 20 0 45 47 32
60 -7 7 -15 1 -24 -17z"/>
<path d="M1725 1841 c-58 -36 -100 -80 -87 -93 8 -8 21 -2 51 25 22 20 54 43
70 52 28 14 34 14 60 1 72 -38 104 -126 105 -296 1 -65 -3 -81 -27 -122 -15
-26 -36 -52 -47 -58 -21 -11 -32 1 -66 73 -10 20 -24 37 -32 37 -10 0 -12 -4
-5 -12 6 -7 13 -25 17 -40 8 -36 53 -88 76 -88 21 0 86 69 100 106 13 33 13
124 -1 221 -23 168 -118 254 -214 194z"/>
<path d="M1632 1119 c-14 -60 -15 -139 -2 -194 6 -26 5 -42 -1 -46 -10 -6 11
-19 30 -19 4 0 1 35 -7 78 -11 61 -12 90 -3 138 13 73 14 94 3 94 -5 0 -14
-23 -20 -51z"/>
<path d="M856 404 c-4 -9 -5 -18 -4 -19 27 -21 250 -95 373 -123 95 -22 447
-72 503 -72 39 0 44 20 5 21 -35 1 -75 8 -82 14 -2 3 33 5 78 5 62 0 82 3 79
12 -4 10 -49 13 -179 14 -142 1 -193 5 -274 23 -144 33 -298 76 -390 111 -93
35 -101 36 -109 14z"/>
</g>
</svg>
